# xmcd CD database file
#
# Track frame offsets:
#	150
#	30433
#	68586
#	94536
#	110256
#	139073
#	164680
#	189396
#	217405
#	258816
#	282806
#	307056
#
# Disc length: 4341 seconds
#
# Revision: 0
# Processed by: cddbd v1.5.2PL0 Copyright (c) Steve Scherf et al.
# Submitted via: CDex 1.70beta2
#
DISCID=a810f30c
DTITLE=Various Artist - Salsa Dura
DYEAR=1900
DGENRE=Salsa
TTITLE0=Jimmy Bosch - Descargarana
TTITLE1=Manny Oquendo Y Su Conjunto Libre - Bailala Pronto
TTITLE2=Bobby Rodrigues - Olvidame
TTITLE3=Rey Roig Y Su Sensacion - Godin Guidon
TTITLE4=Eddie Palmieri - Cafe
TTITLE5=Manolito Y Su Trabuco - Marcando La Distancia
TTITLE6=Louie Ramirez Y La Superbanda - Deja La Que Baile Sola
TTITLE7=Truco Y Zaperoko - El Curato De Tula
TTITLE8=Wayne Gorbea's Salsa Picante - Cogle El Gusto
TTITLE9=Descarga Boricua - Esta Si Va
TTITLE10=Cubanismo - El Pregunton
TTITLE11=Juan Formel Y Los Van Van - Esto Te Pone La Cabeza Mala
EXTD=
EXTT0=
EXTT1=
EXTT2=
EXTT3=
EXTT4=
EXTT5=
EXTT6=
EXTT7=
EXTT8=
EXTT9=
EXTT10=
EXTT11=
PLAYORDER=
